<?xml version="1.0" encoding="utf-8"?>
<!-- Generator: Adobe Illustrator 17.1.0, SVG Export Plug-In . SVG Version: 6.00 Build 0)  -->
<!DOCTYPE svg PUBLIC "-//W3C//DTD SVG 1.1//EN" "http://www.w3.org/Graphics/SVG/1.1/DTD/svg11.dtd">
<svg version="1.1" id="Arrow_1_" xmlns="http://www.w3.org/2000/svg" xmlns:xlink="http://www.w3.org/1999/xlink" x="0px" y="0px"
	 width="500px" height="500px" viewBox="0 0 500 500" enable-background="new 0 0 500 500" xml:space="preserve">
<g>
	<path fill="#F4B459" d="M443.8,107c-3.8-1.1-7.6-2.1-11.5-3.1l-34.7,63.5c9,4.6,17.3,10.5,24.5,17.5c18.4-33.6,33.4-61.1,42-76.9
		C457.6,109.1,450.7,108.9,443.8,107z"/>
	<path fill="#F4B459" d="M250,437.5l-182.2-333c-3.3,0.9-6.6,1.8-9.9,2.7c-4.4,0.8-13.1,1.8-22.4,0.5C74.7,178.7,250,500,250,500
		s35.6-65.2,78.3-143.4c-10-2.3-19.3-6.4-27.9-11.4L250,437.5z"/>
	<path fill="#F1D999" d="M250,0c-1.1,0-2.3,0.1-3.4,0.1c1.4,0,2.8-0.1,4.3-0.1C250.6,0,250.3,0,250,0z"/>
	<path fill="#F1D999" d="M300.5,345.2c-30.1-17.6-50.4-50-50.4-87.4c0-56.1,45.5-101.6,101.6-101.6c16.6,0,32.2,4.1,46,11.1
		l34.7-63.5c-57.9-15.7-118.3-26.2-180.6-26.2h0c-63.2,0-125.2,10.7-183.9,26.8l182.2,333L300.5,345.2z M195.3,203.1
		c-21.6,0-39.1-17.5-39.1-39.1s17.5-39.1,39.1-39.1c21.6,0,39.1,17.5,39.1,39.1S216.9,203.1,195.3,203.1z"/>
	<path fill="#D07C40" d="M195.3,125c-21.6,0-39.1,17.5-39.1,39.1s17.5,39.1,39.1,39.1c21.6,0,39.1-17.5,39.1-39.1
		S216.9,125,195.3,125z"/>
	<path fill="#BB6F39" d="M469.5,30C399.8,10.1,326.4,0,251.3,0h0c-0.1,0-0.3,0-0.4,0c-1.4,0-2.8,0.1-4.3,0.1
		C172.1,0.5,99.4,10.8,30.4,30.7C7.4,37.4-5.4,60,1.8,81.2c6.2,18.4,20.7,24.7,33.7,26.5c9.3,1.3,17.9,0.4,22.4-0.5
		c3.3-0.9,6.6-1.8,9.9-2.7c58.7-16.2,120.7-26.8,183.9-26.8h0c62.3,0,122.7,10.5,180.6,26.2c3.8,1,7.7,2,11.5,3.1
		c6.9,2,13.8,2.1,20.4,1c15.5-2.6,29.1-12.7,34-27.6C505.3,59.1,492.5,36.5,469.5,30z"/>
	<path fill="#BF392C" d="M351.6,156.2c-56.1,0-101.6,45.5-101.6,101.6c0,37.4,20.3,69.8,50.4,87.4c8.6,5,17.9,9,27.9,11.4
		c0,0,0,0,0,0c31.2-57.1,66.2-121.1,93.8-171.7c0,0,0,0,0,0c-7.2-7-15.5-12.9-24.5-17.5C383.8,160.3,368.2,156.2,351.6,156.2z"/>
</g>
</svg>
